<!--?xml version="1.0" standalone="no"?-->

<svg version="1.0" xmlns="http://www.w3.org/2000/svg" width="300.000000pt" height="235.000000pt" viewBox="0 0 300.000000 235.000000" preserveAspectRatio="xMidYMid meet">
<g transform="translate(0.000000,235.000000) scale(0.100000,-0.100000)" fill="#707071" stroke="none">
<path class="node" id="node1" d="M270 2178 c-129 -66 -209 -288 -161 -448 17 -57 94 -137 141 -146
l33 -7 -7 -96 c-3 -53 -6 -119 -6 -147 0 -51 0 -52 -35 -58 -39 -8 -91 -47
-100 -76 -4 -11 -1 -55 5 -98 9 -68 15 -99 36 -200 3 -15 17 -29 38 -37 l33
-14 -5 -100 c-2 -54 -2 -111 2 -125 6 -25 10 -26 76 -26 38 0 72 5 75 11 4 6
6 64 6 129 -2 109 0 121 19 140 l21 21 55 -25 c29 -14 54 -31 54 -38 0 -8 -25
-38 -55 -68 -30 -30 -55 -60 -55 -66 0 -25 203 -192 280 -231 19 -10 52 -28
72 -41 69 -41 242 -104 373 -135 123 -29 141 -31 330 -31 190 0 207 2 335 32
265 63 449 156 650 327 90 77 89 69 11 157 -28 31 -51 59 -51 63 0 3 25 18 55
31 l56 26 25 -26 c25 -24 26 -27 19 -125 -4 -55 -5 -111 -1 -125 6 -25 10 -26
76 -26 57 0 71 3 79 18 6 11 7 64 4 130 -5 97 -4 112 9 112 34 0 59 34 68 95
30 193 34 234 22 259 -14 32 -51 56 -90 59 -30 2 -31 3 -36 67 -3 36 -7 96 -8
135 l-3 69 45 9 c25 5 51 16 58 25 22 28 11 616 -12 609 -7 -2 -13 -75 -16
-213 -6 -211 -11 -244 -34 -224 -10 7 -15 68 -18 220 -5 197 -9 232 -24 217
-4 -3 -11 -102 -16 -219 -5 -117 -13 -217 -18 -222 -19 -19 -27 44 -33 238 -3
109 -8 200 -11 203 -18 18 -24 -25 -25 -175 -1 -173 -8 -259 -21 -267 -21 -13
-28 37 -32 227 -4 184 -8 232 -22 217 -6 -7 -16 -213 -18 -411 -3 -213 -2
-215 72 -225 l43 -6 -6 -130 c-4 -71 -8 -131 -9 -133 -2 -1 -46 -11 -99 -22
-52 -11 -124 -32 -159 -47 -36 -15 -75 -29 -87 -32 -13 -3 -23 -9 -23 -14 0
-5 -7 -9 -15 -9 -24 0 -135 -114 -135 -138 0 -12 13 -42 29 -68 l30 -46 -27
-22 c-181 -148 -500 -238 -734 -207 -134 17 -260 52 -358 99 -85 41 -191 109
-197 128 -2 6 11 31 28 57 35 53 33 68 -13 114 -57 57 -67 64 -131 98 -78 41
-169 73 -267 91 -41 8 -77 18 -81 22 -4 4 -9 68 -13 143 l-6 136 56 28 c102
50 148 161 125 303 -22 133 -86 239 -172 283 -47 24 -45 24 -99 -3z m239 -995
c155 -37 329 -136 306 -173 -5 -8 -14 -7 -31 4 -26 18 -60 21 -66 7 -1 -5 -27
-35 -57 -66 l-54 -57 -71 31 c-39 17 -77 31 -85 31 -10 0 -12 17 -7 83 4 45
10 95 13 111 4 24 3 28 -12 22 -54 -20 -65 -19 -65 8 0 29 3 29 129 -1z m2101
6 c0 -16 -5 -20 -27 -17 -33 4 -34 20 -1 30 13 3 24 6 26 7 1 1 2 -8 2 -20z
m-2350 -9 c0 -23 -22 -27 -39 -7 -13 16 -5 27 21 27 11 0 18 -7 18 -20z m2505
9 c10 -15 -1 -23 -20 -15 -9 3 -13 10 -10 16 8 13 22 13 30 -1z m-229 -21 c0
-13 4 -62 8 -109 l7 -85 -43 -18 c-24 -10 -60 -25 -82 -34 l-38 -16 -64 68
c-50 54 -68 67 -84 62 -66 -20 -67 -20 -35 11 41 40 67 53 107 53 24 0 29 3
18 10 -13 8 -13 10 0 14 202 76 205 76 206 44z m-2222 -63 l79 0 -6 -84 c-4
-46 -10 -88 -16 -94 -11 -11 -96 -14 -132 -4 -25 6 -27 11 -33 88 -4 45 -10
88 -13 96 -5 12 -1 14 18 7 13 -5 59 -9 103 -9z m2480 -57 c-11 -114 -15 -122
-60 -130 -46 -8 -100 -1 -112 16 -5 6 -12 47 -16 91 l-6 81 67 -4 c38 -2 79 1
93 7 41 16 42 14 34 -61z m-2016 -191 c140 -112 288 -185 462 -228 82 -21 117
-24 265 -23 152 1 181 4 269 28 172 47 347 136 452 231 27 25 54 44 59 44 6
-1 49 -45 97 -99 l88 -98 -48 -42 c-108 -96 -277 -197 -419 -250 -277 -104
-600 -118 -882 -40 -219 61 -375 144 -551 291 l-44 37 29 33 c51 61 148 169
152 169 2 0 34 -24 71 -53z"></path>
<path class="node" id="node2" d="M1826 2124 c-39 -12 -64 -13 -131 -5 -157 19 -353 -30 -453 -113 -23
-20 -41 -26 -80 -26 -184 0 -431 -120 -540 -262 -153 -202 -132 -360 58 -433
57 -22 85 -26 181 -27 63 -1 121 0 129 3 16 4 22 -31 39 -236 10 -126 13 -138
46 -153 28 -13 840 4 895 18 48 13 60 37 73 149 12 110 12 157 2 222 l-7 46
50 37 c123 90 193 205 212 347 19 140 -9 250 -85 337 -84 96 -252 138 -389 96z
m201 -70 c67 -23 126 -70 164 -133 29 -47 33 -64 37 -141 6 -132 -28 -220
-127 -324 -62 -65 -119 -106 -148 -106 -43 0 -29 43 67 205 43 71 86 182 76
192 -2 2 -21 -27 -41 -64 -34 -60 -154 -243 -188 -283 -23 -28 -70 -60 -88
-60 -26 0 -24 32 7 105 47 113 66 165 62 177 -5 13 -63 -79 -97 -153 -32 -69
-80 -111 -122 -107 -51 5 -61 35 -67 216 -3 85 -8 148 -13 141 -4 -8 -14 -83
-23 -168 -15 -151 -15 -154 -47 -187 -26 -27 -41 -34 -72 -34 -74 0 -95 26
-121 155 -24 117 -36 117 -36 -2 0 -55 -5 -114 -11 -132 -10 -29 -14 -32 -43
-25 -38 8 -43 12 -75 70 -40 74 -68 89 -159 88 -57 0 -90 -6 -124 -21 -27 -12
-48 -25 -48 -29 0 -4 55 -4 121 0 106 6 124 5 140 -10 28 -25 23 -52 -12 -73
-36 -22 -147 -37 -162 -22 -5 5 -31 7 -57 4 -35 -4 -63 0 -106 16 -69 26 -99
52 -114 97 -41 124 170 356 394 434 63 21 156 35 156 23 0 -12 -179 -183 -223
-213 -48 -32 -48 -44 1 -23 65 30 159 97 280 200 136 115 184 146 267 167 67
18 165 21 165 6 0 -5 -4 -10 -10 -10 -5 0 -38 -18 -72 -40 -99 -64 -262 -210
-234 -210 9 0 152 84 241 142 125 81 153 96 240 124 83 27 157 30 222 8z m-86
-764 c28 -16 23 -32 -7 -24 -31 8 -44 -7 -44 -54 0 -40 23 -40 28 0 3 28 40
46 48 23 3 -7 3 -64 1 -126 -4 -98 -7 -115 -25 -129 -17 -14 -60 -18 -289 -24
-147 -3 -323 -9 -389 -13 -120 -6 -122 -6 -137 18 -11 17 -17 58 -20 140 -4
97 -2 121 12 144 19 32 -27 27 435 40 219 6 239 5 227 -9 -12 -14 -11 -20 5
-37 16 -18 19 -19 30 -4 6 8 18 13 26 10 9 -4 18 1 21 9 5 12 0 16 -18 16 -25
0 -39 12 -28 24 10 10 103 7 124 -4z"></path>
<path class="node" id="node3" d="M1550 1260 c0 -5 14 -10 30 -10 17 0 30 5 30 10 0 6 -13 10 -30 10
-16 0 -30 -4 -30 -10z"></path>
<path class="node" id="node4" d="M1645 1259 c-4 -6 -5 -11 -4 -13 9 -6 99 7 99 15 0 13 -87 11 -95 -2z"></path>
<path class="node" id="node5" d="M1935 1131 c-3 -5 -1 -12 5 -16 5 -3 10 1 10 9 0 18 -6 21 -15 7z"></path>




















</g>
<g transform="translate(0.000000,235.000000) scale(0.100000,-0.100000)" fill="#FFFFFF" stroke="none">

<path class="node" id="node27" d="M380 1184 c0 -27 11 -28 65 -8 15 6 16 2 12 -22 -3 -16 -9 -66 -13
-111 -5 -66 -3 -83 7 -83 8 0 46 -14 85 -31 l71 -31 54 57 c30 31 56 61 57 66
6 14 40 11 66 -7 32 -20 45 -1 19 28 -56 64 -222 132 -390 162 -30 5 -33 3
-33 -20z"></path>
<path class="node" id="node28" d="M2582 1202 c-33 -10 -32 -26 1 -30 22 -3 27 1 27 17 0 12 -1 21 -2
20 -2 -1 -13 -4 -26 -7z"></path>
<path class="node" id="node29" d="M217 1193 c-9 -9 12 -33 29 -33 8 0 14 9 14 20 0 19 -28 28 -43 13z"></path>
<path class="node" id="node30" d="M2735 1190 c-3 -6 1 -13 10 -16 19 -8 30 0 20 15 -8 14 -22 14 -30 1z"></path>
<path class="node" id="node31" d="M2425 1159 c-44 -16 -87 -32 -95 -35 -13 -4 -13 -6 0 -14 11 -7 6
-10 -18 -10 -40 0 -66 -13 -107 -53 -32 -31 -31 -31 35 -11 16 5 34 -8 84 -62
l64 -68 38 16 c22 9 58 24 82 34 l43 18 -7 85 c-4 47 -8 96 -8 109 -1 28 -13
28 -111 -9z"></path>
<path class="node" id="node32" d="M193 1107 c3 -8 9 -51 13 -96 6 -77 8 -82 33 -88 36 -10 121 -7 132
4 6 6 12 48 16 94 l6 84 -79 0 c-44 0 -90 4 -103 9 -19 7 -23 5 -18 -7z"></path>
<path class="node" id="node33" d="M2760 1109 c-14 -6 -55 -9 -93 -7 l-67 4 6 -81 c4 -44 11 -85 16 -91
12 -17 66 -24 112 -16 45 8 49 16 60 130 8 75 7 77 -34 61z"></path>
<path class="node" id="node34" d="M643 843 c-33 -38 -73 -83 -88 -102 l-29 -33 44 -37 c176 -147 332
-230 551 -291 148 -41 266 -54 444 -47 216 8 388 54 590 157 101 52 190 111
267 180 l48 42 -88 98 c-48 54 -91 98 -97 99 -5 0 -32 -19 -59 -44 -105 -95
-280 -184 -452 -231 -88 -24 -117 -27 -269 -28 -148 -1 -183 2 -265 23 -174
43 -322 116 -462 228 -37 29 -69 53 -71 53 -2 0 -31 -30 -64 -67z"></path>
<path class="node" id="node35" d="M1805 2046 c-87 -28 -115 -43 -240 -124 -89 -58 -232 -142 -241 -142
-28 0 135 146 234 210 34 22 67 40 72 40 6 0 10 5 10 10 0 15 -98 12 -165 -6
-83 -21 -131 -52 -267 -167 -121 -103 -215 -170 -280 -200 -49 -21 -49 -9 -1
23 44 30 223 201 223 213 0 12 -93 -2 -156 -23 -224 -78 -435 -310 -394 -434
15 -45 45 -71 114 -97 43 -16 71 -20 106 -16 26 3 52 1 57 -4 15 -15 126 0
162 22 35 21 40 48 12 73 -16 15 -34 16 -140 10 -66 -4 -121 -4 -121 0 0 4 21
17 48 29 34 15 67 21 124 21 91 1 119 -14 159 -88 32 -58 37 -62 75 -70 29 -7
33 -4 43 25 6 18 11 77 11 132 0 119 12 119 36 2 26 -129 47 -155 121 -155 31
0 46 7 72 34 32 33 32 36 47 187 9 85 19 160 23 168 5 7 10 -56 13 -141 6
-181 16 -211 67 -216 42 -4 90 38 122 107 34 74 92 166 97 153 4 -12 -15 -64
-62 -177 -31 -73 -33 -105 -7 -105 18 0 65 32 88 60 34 40 154 223 188 283 20
37 39 66 41 64 10 -10 -33 -121 -76 -192 -96 -162 -110 -205 -67 -205 29 0 86
41 148 106 99 104 133 192 127 324 -4 77 -8 94 -37 141 -80 132 -223 178 -386
125z"></path>
<path class="node" id="node36" d="M1817 1294 c-11 -12 3 -24 28 -24 18 0 23 -4 18 -16 -3 -8 -12 -13
-21 -9 -8 3 -20 -2 -26 -10 -11 -15 -14 -14 -30 4 -16 17 -17 23 -5 37 12 14
-8 15 -227 9 -462 -13 -416 -8 -435 -40 -14 -23 -16 -47 -12 -144 3 -82 9
-123 20 -140 15 -24 17 -24 137 -18 66 4 242 10 389 13 229 6 272 10 289 24
18 14 21 31 25 129 2 62 2 119 -1 126 -8 23 -45 5 -48 -23 -5 -40 -28 -40 -28
0 0 47 13 62 44 54 30 -8 35 8 7 24 -21 11 -114 14 -124 4z m-207 -34 c0 -5
-13 -10 -30 -10 -16 0 -30 5 -30 10 0 6 14 10 30 10 17 0 30 -4 30 -10z m130
1 c0 -8 -90 -21 -99 -15 -1 2 0 7 4 13 8 13 95 15 95 2z m210 -137 c0 -8 -5
-12 -10 -9 -6 4 -8 11 -5 16 9 14 15 11 15 -7z"></path>
</g>
</svg>